<svg width="17" height="14" viewBox="0 0 17 14" fill="none" xmlns="http://www.w3.org/2000/svg">
<path d="M0.161031 0.828993L1.16748 1.68894C0.43881 2.38722 0 3.31597 0 4.35823C0 7.09287 2.84623 9.28747 7.15784 12.6722L8.37765 13.6044L9.59343 12.6688C10.4227 12.0187 11.1997 11.4098 11.9083 10.8354L15.62 14L16.5862 13.1744L1.13527 0L0.161031 0.828993ZM16.7513 4.35479C16.7513 2.12236 14.7424 0.395577 12.1458 0.395577C10.6804 0.395577 9.29955 0.970025 8.37765 1.90565C7.45574 0.970025 6.0749 0.395577 4.60952 0.395577C4.27135 0.395577 3.94526 0.426536 3.63125 0.481572L13.8447 9.18772C15.6764 7.51253 16.7513 6.03686 16.7513 4.35479Z" fill="#4F4F4F"/>
</svg>
