<svg width="23" height="14" viewBox="0 0 23 14" fill="none" xmlns="http://www.w3.org/2000/svg">
<path d="M11.1675 0C6.09228 0 1.77484 2.89272 0 7C1.77484 11.1073 6.09228 14 11.1675 14C16.2428 14 20.5602 11.1073 22.335 7C20.5602 2.89272 16.2428 0 11.1675 0ZM11.1675 11.6682C8.37564 11.6682 6.09228 9.56821 6.09228 7C6.09228 4.43179 8.37564 2.33179 11.1675 2.33179C13.9594 2.33179 16.2428 4.43179 16.2428 7C16.2428 9.56821 13.9594 11.6682 11.1675 11.6682ZM11.1675 4.2C9.4924 4.2 8.12138 5.46093 8.12138 7C8.12138 8.53907 9.4924 9.8 11.1675 9.8C12.8427 9.8 14.2137 8.53907 14.2137 7C14.2137 5.46093 12.8427 4.2 11.1675 4.2Z" fill="#4F4F4F"/>
</svg>
